<svg xmlns="http://www.w3.org/2000/svg" viewBox="0 0 640 292" width="640" height="292">
  <!-- Two full stacks, duplicated on purpose. One shared thing at the bottom. -->

  <text class="dg-eyebrow" x="0" y="14">V1 — DEPRECATED, STILL SERVED</text>
  <text class="dg-eyebrow" x="336" y="14">V2 — CURRENT</text>

  <line class="dg-rule" x1="0" y1="26" x2="304" y2="26" />
  <line class="dg-rule" x1="336" y1="26" x2="640" y2="26" />

  <g class="dg-mono">
    <text x="0" y="52">routes/api/v1.php</text>
    <text x="336" y="52">routes/api/v2.php</text>
    <text x="0" y="94">Http/Controllers/Api/V1/</text>
    <text x="336" y="94">Http/Controllers/Api/V2/</text>
    <text x="0" y="136">Http/Resources/V1/</text>
    <text x="336" y="136">Http/Resources/V2/</text>
  </g>

  <g class="dg-soft">
    <line x1="0" y1="66" x2="304" y2="66" />
    <line x1="336" y1="66" x2="640" y2="66" />
    <line x1="0" y1="108" x2="304" y2="108" />
    <line x1="336" y1="108" x2="640" y2="108" />
    <line x1="0" y1="150" x2="304" y2="150" />
    <line x1="336" y1="150" x2="640" y2="150" />
  </g>

  <text class="dg-mono dg-muted" x="0" y="172">Frozen. Bug fixes only.</text>
  <text class="dg-mono dg-muted" x="336" y="172">Where the work happens.</text>

  <!-- both funnel into one domain -->
  <g class="dg-accent-stroke">
    <line x1="152" y1="192" x2="152" y2="228" />
    <line x1="488" y1="192" x2="488" y2="228" />
    <line x1="152" y1="228" x2="488" y2="228" />
    <line x1="320" y1="228" x2="320" y2="244" />
    <polyline points="315,237 320,244 325,237" />
  </g>

  <line class="dg-rule" x1="0" y1="252" x2="640" y2="252" />
  <text class="dg-mono" x="0" y="276">app/Services/ — one copy, no version namespace</text>
</svg>
